<svg width="284" height="335" viewBox="0 0 284 335" fill="none" xmlns="http://www.w3.org/2000/svg">
<path d="M123.168 0.935463C121.301 1.4688 120.901 2.40213 121.434 4.6688C121.834 6.40213 123.434 13.3355 125.034 20.2688C127.968 33.2021 129.301 36.1355 131.434 33.8688C132.101 33.2021 131.568 26.6688 130.101 18.0021C128.768 9.8688 127.701 2.53546 127.568 1.60213C127.568 0.00213044 127.168 -0.131204 123.168 0.935463Z" fill="#B26E0B"/>
<path d="M138.232 15.8699C138.232 31.0699 139.299 35.4699 142.232 32.5366C142.899 31.8699 143.566 24.2699 143.832 15.6032C144.232 0.136562 144.232 0.00322872 141.299 0.00322872C138.232 0.00322872 138.232 0.269895 138.232 15.8699Z" fill="#B26E0B"/>
<path d="M151.966 16.9356C150.1 27.7357 149.7 32.9357 150.633 33.6023C151.433 34.1357 152.5 34.269 153.033 33.869C153.966 33.3357 160.9 5.60231 160.9 2.66898C160.9 1.86898 159.566 1.33565 157.833 1.33565C154.9 1.33565 154.5 2.26898 151.966 16.9356Z" fill="#B26E0B"/>
<path d="M105.7 6.53581C105.3 7.20247 108.1 14.5358 111.967 23.0691C117.3 34.6691 119.567 38.1358 120.9 37.3358C123.567 35.7358 111.967 5.33581 108.633 5.33581C107.433 5.33581 106.1 5.86914 105.7 6.53581Z" fill="#B26E0B"/>
<path d="M170.633 7.60261C170.233 8.93594 167.566 15.8693 164.633 23.0693C161.833 30.1359 159.566 36.4026 159.566 36.6693C159.566 37.0693 160.766 37.3359 162.233 37.3359C163.7 37.3359 164.9 36.8026 164.9 36.1359C164.9 35.4693 167.833 28.6693 171.433 21.0693C175.033 13.4693 177.566 6.93594 177.3 6.26927C176.233 4.40261 171.433 5.33594 170.633 7.60261Z" fill="#B26E0B"/>
<path d="M203.7 11.2029C212.9 14.8029 216.634 17.3363 217.434 20.4029C218.9 26.2696 230.234 28.6696 233.3 23.8696C234.767 21.4696 231.967 14.5363 229.034 13.6029C227.567 13.0696 227.434 14.1363 227.967 18.1363C228.767 22.5363 228.634 22.9363 227.434 20.4029C225.434 16.5363 212.5 10.4029 204.9 9.86959L198.9 9.33625L203.7 11.2029Z" fill="#2E7D32"/>
<path d="M91.6993 13.2019C90.2327 14.1353 91.966 17.4686 99.6993 28.6686C105.033 36.4019 109.966 43.0686 110.499 43.4686C111.033 43.8686 111.966 43.2019 112.366 42.1353C113.299 39.8686 97.0327 12.0019 94.8993 12.0019C94.2327 12.0019 92.766 12.5353 91.6993 13.2019Z" fill="#B26E0B"/>
<path d="M179.299 23.603C169.433 39.203 168.366 41.3364 169.833 42.803C171.433 44.403 172.899 42.6697 183.699 26.9364C190.499 16.803 191.833 14.2697 190.233 13.3364C189.166 12.5364 187.833 12.003 187.433 12.003C186.899 12.003 183.299 17.203 179.299 23.603Z" fill="#B26E0B"/>
<path d="M61.2998 15.8682C57.4332 17.2016 54.6332 17.7349 55.0332 17.0682C55.4332 16.5349 55.0332 16.0016 54.2332 16.0016C52.2332 16.0016 49.6998 22.1349 50.6332 24.5349C52.4998 29.3349 60.4998 26.4016 67.4332 18.2682C72.3665 12.6682 71.4332 12.2682 61.2998 15.8682Z" fill="#2E7D32"/>
<path d="M39.1657 20.2669C35.6991 28.6669 35.5657 30.0003 37.9657 34.9336C40.0991 39.0669 40.2324 40.1336 38.7657 42.8003C37.8324 44.5336 37.0324 47.3336 36.8991 48.9336C36.8991 54.2669 34.4991 52.2669 33.8324 46.2669C33.5657 43.2003 32.3657 38.2669 31.1657 35.3336L29.1657 30.0003L27.4324 34.0003C24.4991 41.2003 25.1657 48.8003 29.1657 52.8003C32.4991 56.1336 32.4991 56.6669 30.8991 60.5336C29.9657 62.8003 28.6324 65.8669 28.0991 67.3336C27.2991 69.7336 27.0324 69.4669 26.2324 66.0003C25.6991 63.7336 23.8324 59.0669 22.2324 55.4669C19.6991 50.0003 19.0324 49.3336 17.9657 51.2003C17.2991 52.4003 16.3657 56.6669 15.9657 60.5336C15.1657 68.2669 17.5657 74.8003 22.2324 77.3336C24.4991 78.5336 24.7657 79.6003 24.0991 84.4003C23.5657 87.4669 22.7657 91.2003 22.0991 92.6669C21.0324 95.3336 21.0324 95.3336 21.0324 92.6669C20.8991 91.2003 18.8991 86.9336 16.3657 83.3336C13.9657 79.6003 11.5657 75.3336 11.0324 73.6003C9.16572 68.0003 7.56572 72.1336 7.56572 82.4003C7.56572 94.5336 10.2324 100.934 16.6324 104L20.8991 106L20.7657 117.334C20.7657 128.534 20.6324 128.667 18.8991 123.6C17.8324 120.934 13.8324 114.134 9.96572 108.534L2.89906 98.4003L2.49906 107.467C2.23239 112.534 2.76572 119.2 3.56572 122.267C5.29906 128.4 11.5657 135.067 17.4324 136.934C21.0324 138 21.5657 139.067 23.2991 147.467C24.7657 155.2 28.2324 162.4 29.6991 160.934C29.9657 160.8 29.2991 156.934 28.2324 152.667C25.2991 140.4 25.5657 137.734 30.0991 135.334C35.2991 132.667 38.8991 126.534 41.4324 116C42.6324 111.2 43.9657 105.867 44.4991 104C45.2991 101.2 44.4991 101.467 37.8324 107.2C33.6991 110.667 29.2991 115.867 27.9657 118.8C25.0324 124.934 22.8991 125.6 24.0991 119.867C24.4991 117.6 24.8991 113.734 24.8991 111.467C24.8991 107.867 25.5657 106.934 29.2991 105.6C35.8324 103.334 40.2324 97.7336 43.4324 88.1336C44.8991 83.3336 45.9657 79.3336 45.5657 78.9336C44.3657 77.7336 32.0991 87.7336 28.8991 92.5336C24.8991 98.5336 24.4991 97.6003 26.6324 88.1336C28.0991 81.4669 28.6324 80.8003 33.5657 79.0669C36.4991 78.1336 39.9657 76.2669 41.1657 74.9336C43.1657 72.8003 50.4991 60.0003 49.5657 60.0003C47.1657 60.0003 36.8991 64.8003 34.6324 66.9336C31.1657 70.2669 30.7657 68.5336 33.4324 62.0003C35.0324 58.1336 36.0991 57.3336 39.2991 57.3336C44.0991 57.3336 50.8991 52.6669 54.4991 46.9336L57.2991 42.5336L52.0991 43.3336C49.2991 43.8669 45.4324 45.2003 43.8324 46.2669C39.4324 48.9336 38.7657 47.6003 42.2324 42.8003C44.4991 39.4669 45.9657 38.6669 50.2324 38.6669C55.1657 38.6669 63.5657 33.6003 63.5657 30.5336C63.5657 29.8669 60.4991 29.3336 56.8991 29.3336C51.5657 29.3336 49.4324 30.0003 47.0324 32.4003L44.0991 35.3336V27.0669C44.2324 16.6669 41.9657 13.6003 39.1657 20.2669ZM47.5657 49.3336C47.5657 50.0003 45.8324 51.4669 43.5657 52.6669C38.4991 55.2003 38.2324 52.8003 43.2991 50.1336C47.6991 47.7336 47.5657 47.7336 47.5657 49.3336ZM24.0991 70.2669C25.5657 74.9336 22.6324 73.8669 21.0324 69.2003C18.8991 63.2003 19.1657 59.8669 21.4324 64.0003C22.3657 65.8669 23.6991 68.6669 24.0991 70.2669ZM40.0991 69.8669C39.1657 72.4003 32.8991 76.5336 31.8324 75.3336C30.8991 74.4003 37.9657 68.0003 39.8324 68.0003C40.3657 68.0003 40.4991 68.8003 40.0991 69.8669ZM19.5657 99.7336C19.5657 102.667 17.0324 100.134 14.2324 94.6669C10.0991 86.5336 11.1657 83.8669 15.5657 91.3336C17.6991 94.9336 19.5657 98.8003 19.5657 99.7336ZM38.2324 90.5336C38.2324 92.4003 27.6991 103.467 27.5657 101.6C27.5657 100.667 29.4324 97.4669 31.8324 94.5336C35.8324 89.6003 38.2324 88.0003 38.2324 90.5336ZM14.2324 124.267C18.3657 131.734 18.2324 134.534 13.9657 129.6C10.3657 125.734 5.29906 111.734 8.76572 115.334C9.43239 116.134 11.8324 120.134 14.2324 124.267ZM34.2324 123.2C31.4324 128.934 28.0991 132.934 27.0324 131.867C26.2324 131.067 29.8324 123.867 34.7657 116C37.4324 112 36.8991 117.2 34.2324 123.2Z" fill="#2E7D32"/>
<path d="M240.367 18.9353C239.967 20.6687 239.567 25.202 239.567 29.202C239.567 36.2687 239.567 36.2687 237.167 33.3354C235.301 30.9353 232.901 30.1354 227.167 29.602C218.367 28.9354 217.701 30.1354 223.701 35.202C226.501 37.602 229.301 38.6687 232.901 38.6687C237.167 38.6687 238.634 39.4687 241.434 43.0687C245.167 48.002 245.967 50.5354 243.034 48.1354C240.767 46.2687 226.234 41.4687 226.234 42.5354C226.234 43.0687 227.701 45.602 229.567 48.402C233.301 53.8687 239.034 57.3354 244.101 57.3354C247.567 57.3354 251.567 62.6687 251.567 67.4687C251.567 69.602 251.167 69.4687 248.634 67.0687C245.834 64.5354 235.701 60.802 234.634 61.8687C234.367 62.1354 234.767 63.7354 235.434 65.602C237.567 71.3354 243.567 77.202 249.034 78.802C253.034 80.002 254.501 81.3354 255.034 83.8687C255.434 85.7354 256.367 89.4687 257.034 92.002C259.034 99.8687 258.367 100.669 255.167 94.6687C253.167 90.802 249.434 86.9354 244.501 83.602C240.234 80.6687 236.501 78.6687 236.101 79.0687C235.434 79.7354 237.701 85.602 242.501 95.7354C244.634 100.135 246.767 102.002 251.701 104.402L258.234 107.335L258.101 117.335C257.967 126.669 257.834 126.935 256.501 122.669C255.701 120.002 251.701 114.669 247.301 110.269C239.434 102.669 235.834 100.669 237.567 104.935C238.101 106.269 239.301 111.202 240.234 115.735C242.367 126.002 247.167 133.602 252.767 136.002C257.567 137.869 257.834 139.869 255.034 150.669C253.967 154.669 253.434 158.269 253.701 158.535C255.301 160.135 258.501 154.269 259.834 147.202C261.301 139.335 261.434 139.069 267.434 136.269C276.367 132.269 279.701 125.735 280.767 110.535C281.301 104.002 281.167 98.802 280.634 98.9354C278.634 99.7354 268.767 114.269 265.034 122.002L261.167 129.869L261.701 118.002C261.967 109.869 262.767 105.869 263.834 105.469C266.634 104.669 271.701 99.602 273.701 95.7354C275.567 92.002 276.234 79.202 274.767 73.602C273.967 70.802 273.434 71.3354 269.301 78.2687C266.901 82.5354 264.101 87.602 263.301 89.602C262.367 91.7354 261.301 93.3354 260.767 93.3354C260.367 93.3354 259.567 90.1354 259.167 86.402C258.367 80.002 258.634 79.0687 261.701 76.2687C267.701 70.6687 269.034 62.6687 265.701 53.3354L263.967 48.6687L261.567 54.002C260.367 56.9354 258.501 61.7354 257.567 64.6687C256.501 68.002 255.567 69.202 255.167 68.002C252.234 59.7354 251.434 55.602 252.501 54.802C257.834 51.202 259.567 42.6687 256.367 35.3354L254.634 31.3354L251.834 37.602C250.234 41.0687 248.901 45.602 248.901 47.602C248.767 51.0687 248.634 50.9354 245.567 45.3354C243.034 40.402 242.767 38.9354 244.234 37.3354C247.434 33.4687 247.701 28.1353 245.034 22.002C243.567 18.6687 242.101 16.002 241.834 16.002C241.434 16.002 240.901 17.3353 240.367 18.9353ZM244.901 53.602C244.901 55.0687 243.967 54.9354 239.567 52.6687C233.967 49.7354 234.634 47.602 240.234 50.2687C242.767 51.4687 244.901 52.9354 244.901 53.602ZM261.434 70.2687C260.234 73.0687 259.034 74.6687 258.634 73.7354C258.367 72.9354 259.034 70.002 260.367 67.0687C261.567 64.2687 262.767 62.6687 263.167 63.602C263.434 64.402 262.767 67.3354 261.434 70.2687ZM250.234 74.002C252.901 77.3354 249.567 76.402 245.034 72.5354C242.767 70.6687 240.901 68.5354 240.901 67.7354C240.901 66.402 247.567 70.6687 250.234 74.002ZM269.967 90.402C269.301 93.0687 267.567 96.802 266.101 98.6687L263.301 102.002L264.234 98.002C265.034 94.402 269.834 85.3354 270.901 85.3354C271.034 85.3354 270.767 87.602 269.967 90.402ZM254.234 100.002C254.234 100.669 253.701 101.335 252.901 101.335C251.434 101.335 244.901 92.002 244.901 90.002C245.034 88.2687 254.234 98.1354 254.234 100.002ZM253.034 125.735C255.701 130.935 255.701 133.069 253.034 131.335C251.301 130.269 246.901 122.002 245.701 117.335L244.767 114.002L247.567 117.335C249.034 119.202 251.567 122.935 253.034 125.735ZM272.901 123.202C269.301 129.602 266.367 133.335 264.634 133.335C263.301 133.335 266.367 127.069 271.434 119.469C275.701 112.935 276.901 115.869 272.901 123.202Z" fill="#2E7D32"/>
<path d="M79.5669 23.3364C78.1002 25.0698 79.5669 27.2031 89.7002 37.7364C101.167 49.6031 104.234 51.8698 104.234 48.2698C104.234 46.4031 83.8335 21.3364 82.2335 21.3364C81.7002 21.3364 80.5002 22.2698 79.5669 23.3364Z" fill="#B26E0B"/>
<path d="M187.034 34.7995C178.234 44.7995 175.567 48.5328 176.767 49.7328C177.834 50.7995 181.434 48.1328 190.901 38.6661C197.834 31.7328 203.567 25.3328 203.567 24.5328C203.567 23.3328 200.634 21.1995 199.167 21.3328C199.034 21.3328 193.567 27.4661 187.034 34.7995Z" fill="#B26E0B"/>
<path d="M196.499 43.468C183.966 53.6013 179.566 58.668 183.432 58.668C184.766 58.668 210.899 41.068 213.966 38.1346C215.299 36.8013 215.166 36.1346 213.166 34.268C210.899 32.268 209.966 32.8013 196.499 43.468Z" fill="#B26E0B"/>
<path d="M68.9003 35.3346C68.1003 36.4013 67.7003 37.7346 68.1003 38.5346C69.3003 40.4013 95.0336 58.668 96.6336 58.668C99.0336 58.668 99.5669 54.8013 97.1669 53.468C95.9669 52.8013 89.8336 48.0013 83.5669 42.8013C77.3003 37.6013 71.8336 33.3346 71.4336 33.3346C70.9003 33.3346 69.8336 34.268 68.9003 35.3346Z" fill="#B26E0B"/>
<path d="M58.1814 48.4211C57.1937 49.1789 56.6999 50.1263 57.1937 50.6947C58.6753 52.0211 90.4459 65 92.4213 65C95.3843 65 96.0428 62.2526 93.0797 61.3053C91.5982 60.8316 84.0259 57.4211 76.289 53.7263C68.5521 50.0316 61.8029 47 61.3091 47C60.6506 47 59.3337 47.6632 58.1814 48.4211Z" fill="#B26E0B"/>
<path d="M127.299 40.4025C113.566 45.6025 103.299 55.4692 98.7658 68.1358C93.8324 82.0025 97.0324 100.936 105.832 110.802C110.766 116.136 112.232 116.802 115.566 114.669C117.166 113.736 116.899 113.069 113.966 110.669C111.966 109.202 108.766 104.536 106.766 100.536C103.832 94.4025 103.166 91.3358 103.166 83.3358C103.299 71.7358 106.366 64.1358 113.966 56.6692C129.566 41.3358 149.966 40.9358 166.366 55.6025C172.766 61.3358 178.232 71.8692 178.232 78.5358C178.232 82.0025 178.632 82.8025 180.366 82.1358C181.566 81.7358 183.032 81.3358 183.832 81.3358C185.832 81.3358 184.099 71.6025 180.899 64.4025C177.566 56.6692 167.699 46.5358 159.966 42.6692C152.099 38.8025 135.032 37.6025 127.299 40.4025Z" fill="#B26E0B"/>
<path d="M210.9 49.7349C192.1 60.2682 186.367 64.1349 187.034 66.0015C188.234 68.9349 190.634 68.4015 194.1 64.8015C195.834 62.9349 199.034 60.8015 201.3 60.0015C210.634 56.4015 222.234 50.0015 222.234 48.4015C222.234 45.7349 216.9 46.4015 210.9 49.7349Z" fill="#B26E0B"/>
<path d="M141.7 51.6026C140.633 53.7359 138.233 56.8026 136.367 58.5359C133.167 61.6026 131.7 65.3359 133.833 65.3359C134.233 65.3359 136.633 63.8693 139.167 61.8693C143.967 58.2693 148.1 51.3359 146.9 49.3359C145.433 47.0693 143.7 47.8693 141.7 51.6026Z" fill="#0A3A19"/>
<path d="M131.032 52.1362C128.632 54.0028 127.566 55.8695 127.966 57.4695C128.499 59.4695 127.566 60.2695 123.432 61.4695C120.632 62.4028 118.232 63.6028 118.232 64.2695C118.232 66.2695 122.366 67.0695 123.966 65.4695C126.766 62.6695 127.699 64.0028 125.566 67.8695C124.366 70.2695 124.099 72.1362 124.899 72.6695C126.499 73.6028 129.699 68.5362 130.899 63.2028C131.299 60.9362 133.432 57.3362 135.566 55.3362C137.832 53.2028 139.566 51.0695 139.566 50.4028C139.566 48.2695 134.499 49.3362 131.032 52.1362Z" fill="#0A3A19"/>
<path d="M219.033 55.6006C215.566 57.334 215.433 57.8673 217.433 58.934C220.9 60.934 225.566 59.734 225.566 56.8006C225.566 53.334 223.7 53.0673 219.033 55.6006Z" fill="#B26E0B"/>
<path d="M141.7 62.6671L136.5 67.8671L141.433 70.6671C145.833 73.3337 148.233 78.6671 144.9 78.6671C144.233 78.6671 143.567 77.7337 143.567 76.6671C143.567 73.7337 136.1 70.2671 133.033 71.8671C129.3 73.8671 114.233 91.3337 114.233 93.7337C114.233 94.8004 116.1 99.7337 118.233 104.667C120.5 109.6 122.233 114.134 122.233 114.8C122.233 115.467 120.767 116.667 119.033 117.334C117.167 118 110.367 121.2 103.833 124.534L91.8335 130.4L70.9001 129.734L49.9668 129.067L50.5001 132.134C50.9001 134.934 51.4335 135.2 56.7668 134.8C59.9668 134.667 62.2335 134.934 61.9668 135.6C58.9001 142.134 57.4335 144 55.3001 144C52.7668 144 52.3668 145.067 53.7001 148.4C54.1001 149.6 55.4335 150.134 56.9001 149.734C60.1001 148.934 61.7001 154 59.4335 158.134C57.7001 161.6 58.3668 163.6 60.9001 162C63.9668 160.134 65.0335 154.534 63.0335 150.534L61.1668 146.667L69.9668 142C74.7668 139.467 78.9001 137.6 79.1668 137.867C79.4335 138 78.6335 140.134 77.4335 142.534C74.7668 147.867 75.5668 154.4 79.5668 160L82.3668 164H71.7001C65.7001 164 60.9001 164.267 60.9001 164.667C60.9001 165.067 62.1001 167.2 63.7001 169.2L66.5001 172.934L75.8335 169.867C85.5668 166.534 88.9001 166 88.9001 167.734C88.9001 168.267 84.3668 170.4 78.7668 172.534C68.7668 176.267 68.7668 176.267 71.1668 179.067C72.5001 180.667 73.7001 182.267 73.8335 182.534C73.9668 182.8 77.5668 180.8 81.8335 178.267C94.5001 170.667 103.567 166.534 106.633 166.934C108.633 167.2 104.9 170 93.8335 176.4C85.3001 181.467 78.2335 186 78.2335 186.534C78.2335 187.067 80.1001 188.934 82.3668 190.534L86.5001 193.6L94.7668 185.734C110.633 170.4 120.9 162.667 120.9 166.267C120.9 166.934 113.967 174 105.3 182L89.8335 196.8L95.7001 200.4C100.9 203.467 101.7 203.6 102.9 201.867C103.7 200.667 109.433 191.734 115.967 181.867C122.367 172.134 127.567 163.734 127.567 163.334C127.567 162.934 126.633 162.667 125.567 162.667C123.833 162.667 123.967 161.867 126.1 157.467L128.767 152.267L125.967 151.6C122.1 150.534 120.9 151.467 120.9 155.334C120.9 157.334 119.567 159.467 117.567 160.8C114.233 162.934 103.567 165.067 103.567 163.467C103.567 162.934 104.9 160.667 106.633 158.534C112.367 150.667 109.3 138.4 100.5 133.867L96.5001 131.734L110.9 125.2C118.767 121.6 125.833 118.667 126.633 118.667C127.433 118.667 129.033 117.867 130.1 116.8C133.167 114.267 177.967 93.3337 183.3 92.0004C185.833 91.3337 188.5 90.0004 189.3 88.9337C190.9 86.9337 217.433 74.6671 220.233 74.6671C222.5 74.6671 228.767 89.2004 230.9 99.7337L232.767 108.667L232.5 96.6671C232.1 86.1337 231.567 83.6004 227.433 75.3337C221.433 63.0671 216.233 59.8671 206.633 62.4004C203.167 63.3337 199.3 65.0671 198.233 66.2671C196.367 68.1337 196.5 68.2671 199.567 67.4671C207.833 65.2004 211.833 65.0671 215.033 66.6671C218.233 68.4004 219.434 72.0004 216.9 72.0004C214.633 72.0004 185.967 84.2671 182.233 86.8004C174.767 91.8671 130.233 112 128.233 111.2C125.567 110.134 123.567 106.4 123.567 102.134C123.567 100.134 122.1 97.3337 119.967 95.3337C117.033 92.8004 116.767 92.0004 118.5 92.0004C119.7 92.0004 121.167 92.5337 121.567 93.3337C122.9 95.6004 124.1 94.9337 127.433 90.0004C129.167 87.4671 131.033 85.3337 131.567 85.3337C132.1 85.3337 132.367 90.1337 132.233 96.1337C131.967 108.267 130.767 107.734 144.5 101.6L152.767 98.0004L152.9 88.1337C152.9 77.6004 154.1 76.8004 156.233 85.7337C157.967 92.9337 161.033 93.6004 163.033 87.3337C163.833 84.8004 164.1 82.6671 163.567 82.6671C163.033 82.6671 160.233 80.5337 157.433 77.8671C154.5 75.3337 150.633 72.8004 148.633 72.4004C144.367 71.6004 143.3 66.6671 147.3 66.6671C150.767 66.6671 151.433 65.6004 150.367 61.7337C149.033 56.6671 147.567 56.8004 141.7 62.6671ZM139.567 79.6004C139.567 82.6671 143.433 86.6671 146.5 86.6671C151.3 86.6671 149.033 93.8671 143.167 96.8004C138.633 99.2004 136.9 97.8671 136.9 91.8671C136.9 89.8671 135.7 86.8004 134.233 84.9337C131.167 81.0671 130.9 79.2004 133.3 78.2671C136.767 76.8004 139.567 77.3337 139.567 79.6004ZM74.2335 135.6C74.2335 136.267 71.5668 138 68.2335 139.6C61.5668 142.8 61.3001 142.667 64.3668 138C65.8335 135.734 67.8335 134.667 70.3668 134.667C72.5001 134.667 74.2335 135.067 74.2335 135.6ZM91.5668 140.267V146L87.9668 142.267C84.3668 138.667 84.2335 138.534 86.7668 136.534C90.7668 133.6 91.5668 134.267 91.5668 140.267ZM98.6335 136.267C100.5 137.867 100.5 138.4 97.5668 142L94.2335 146V140.267C94.2335 134.4 95.0335 133.6 98.6335 136.267ZM86.2335 144.667L89.3001 148H84.5001C80.6335 148 79.5668 147.467 79.5668 145.6C79.5668 140.4 81.9668 140.134 86.2335 144.667ZM104.9 142.534C104.9 143.2 105.3 144.667 105.7 145.867C106.367 147.6 105.567 148 101.7 148C96.1001 148 95.8335 147.334 99.9668 143.867C103.167 141.2 104.9 140.667 104.9 142.534ZM85.8335 154.267C82.7668 157.467 81.9668 157.734 80.9001 156C78.3668 152.134 79.4335 150.667 84.5001 150.667H89.5668L85.8335 154.267ZM105.433 153.6C104.1 158.134 103.833 158.134 99.8335 154.267L96.2335 150.667H101.3C105.967 150.667 106.367 150.934 105.433 153.6ZM91.5668 158.667C91.5668 163.867 91.4335 163.867 88.2335 162.4C84.2335 160.667 84.1001 159.467 87.3001 156.134C90.7668 152.267 91.5668 152.8 91.5668 158.667ZM98.6335 161.6C95.3001 165.334 94.2335 164.534 94.2335 158.4V152.934L97.5668 156C100.633 158.934 100.767 159.334 98.6335 161.6Z" fill="#0A3A19"/>
<path d="M51.9672 71.4661C50.7672 74.5327 52.3672 75.3327 67.5672 78.3994C87.3006 82.5327 90.7672 82.6661 91.3006 79.1994C91.7006 76.6661 90.9006 76.2661 83.9672 75.3327C79.7006 74.9327 71.7006 73.3327 65.9672 71.8661C53.7006 68.7994 53.0339 68.7994 51.9672 71.4661Z" fill="#B26E0B"/>
<path d="M202.232 70.6678C199.699 71.3344 197.166 71.4678 196.632 71.2011C195.166 70.2678 190.232 73.2011 190.232 74.9344C190.232 75.8678 190.899 75.7344 192.232 74.6678C193.299 73.7344 195.032 73.3344 196.232 73.7344C198.232 74.5344 205.966 72.4011 208.232 70.5344C209.699 69.0678 208.766 69.2011 202.232 70.6678Z" fill="black"/>
<path d="M49.4337 83.8685C49.1671 84.1352 48.9004 85.6018 48.9004 86.9352C48.9004 89.2018 49.7004 89.4685 54.6337 88.8018C57.7004 88.4018 63.8337 87.7352 68.2337 87.2018C73.9671 86.6685 75.5671 86.1352 73.9671 85.2018C71.7004 84.0018 50.5004 82.8018 49.4337 83.8685Z" fill="#B26E0B"/>
<path d="M209.299 83.6011C206.099 84.2678 205.032 86.6678 207.966 86.8011C208.766 86.8011 212.366 87.3345 215.832 87.8678C223.032 89.0678 223.966 88.6678 222.099 85.2011C220.766 82.6678 216.632 82.1345 209.299 83.6011Z" fill="#B26E0B"/>
<path d="M165.834 86.2667C164.768 87.3333 164.634 92 165.568 92C166.901 92 176.901 86.6667 176.901 86C176.901 84.9333 166.768 85.2 165.834 86.2667Z" fill="black"/>
<path d="M73.5671 91.4694C65.5671 93.0694 56.6337 94.8027 53.9671 95.336C49.7004 96.0027 48.9004 96.6694 48.9004 99.4694C48.9004 102.136 49.4337 102.536 51.9671 102.003C53.5671 101.603 60.9004 99.8694 68.2337 98.136C75.5671 96.2694 83.8337 94.4027 86.6337 94.0027C90.2337 93.336 91.5671 92.4027 91.3004 90.936C90.7671 88.0027 89.8337 88.0027 73.5671 91.4694Z" fill="#B26E0B"/>
<path d="M193.566 92.1343C193.032 92.9343 192.899 93.7343 193.032 93.8676C193.299 94.1343 200.766 95.8676 209.432 97.8676C218.232 99.8676 225.966 101.868 226.632 102.268C227.966 103.068 226.499 97.3343 225.032 95.8676C224.099 94.9343 201.299 90.6676 197.166 90.6676C195.566 90.6676 193.966 91.3343 193.566 92.1343Z" fill="#B26E0B"/>
<path d="M177.967 97.601C175.834 98.2676 174.234 99.4676 174.234 100.134C174.234 100.934 171.167 104.534 167.434 108.268C163.567 112.134 161.034 115.734 161.434 116.801C162.367 119.201 163.434 119.201 168.501 116.001C172.901 113.334 182.901 99.7343 182.101 97.601C181.701 96.9343 180.101 96.9343 177.967 97.601Z" fill="#B26E0B"/>
<path d="M70.2327 104.802C61.0327 108.135 52.4994 111.202 51.1661 111.602C48.6327 112.402 48.4994 118.269 50.8994 117.735C55.0327 116.935 92.8994 100.669 92.8994 99.7353C92.8994 97.4687 86.3661 98.9353 70.2327 104.802Z" fill="#B26E0B"/>
<path d="M187.834 100.269C188.234 101.203 189.834 102.269 191.701 102.803C193.434 103.336 202.901 107.069 212.501 111.069C229.034 118.003 230.368 118.403 231.568 116.136C232.634 113.869 231.568 113.203 222.368 109.469C198.501 99.8692 186.768 96.8025 187.834 100.269Z" fill="#B26E0B"/>
<path d="M79.5676 112.401C66.5009 119.068 61.9676 122.668 66.7676 122.668C71.0343 122.668 97.4343 107.735 95.9676 106.135C94.5009 104.801 93.8343 105.068 79.5676 112.401Z" fill="#B26E0B"/>
<path d="M183.566 106.535C183.566 107.868 201.966 118.668 204.366 118.668C209.433 118.668 206.5 115.468 197.033 110.668C186.1 105.201 183.566 104.401 183.566 106.535Z" fill="#B26E0B"/>
<path d="M139.967 115.735C129.167 121.068 127.567 122.268 125.3 127.201C123.967 130.135 121.567 134.668 119.834 137.068C118.1 139.601 117.034 142.001 117.434 142.401C118.634 143.601 128.234 140.268 131.967 137.335C133.834 135.868 137.034 131.335 138.9 127.201C141.834 120.935 145.7 117.335 149.567 117.335C150.9 117.335 153.167 123.335 153.567 127.468C153.967 131.068 153.167 132.668 149.434 136.001C144.234 140.535 141.434 141.201 142.9 137.601C144.634 133.201 145.167 125.601 143.834 123.335C142.767 121.335 142.367 121.735 141.7 126.268C139.967 136.001 131.567 145.335 124.5 145.335C123.034 145.335 122.234 146.001 122.634 146.935C123.034 148.135 125.7 148.535 130.634 148.401C140.767 148.135 151.967 142.668 156.367 136.001C159.7 131.068 159.7 130.935 157.7 122.935C156.5 118.535 155.567 113.735 155.567 112.135C155.567 108.401 154.367 108.668 139.967 115.735Z" fill="#0A3A19"/>
<path d="M91.4331 116C83.8331 121.733 82.0997 124 85.2997 124C88.0997 124 101.166 113.467 100.233 112C99.1664 110.267 99.5664 110 91.4331 116Z" fill="#B26E0B"/>
<path d="M179.166 112.936C178.633 113.336 179.966 115.069 182.1 116.536C184.233 118.136 188.1 121.069 190.633 123.069C194.9 126.536 198.233 126.936 198.233 124.136C198.233 122.936 182.9 112.002 181.166 112.002C180.5 112.002 179.566 112.402 179.166 112.936Z" fill="#B26E0B"/>
<path d="M173.566 118.667C172.633 120.267 182.1 131.867 184.5 132C187.033 132 187.966 129.333 186.1 127.2C182.5 122.8 174.366 117.333 173.566 118.667Z" fill="#B26E0B"/>
<path d="M212.9 121.469C212.9 123.869 212.367 124.136 209.567 123.469C207.033 122.803 205.967 123.203 205.3 124.936C204.767 126.136 205.167 127.469 205.967 127.736C208.233 128.403 207.967 130.669 205.7 130.669C202.5 130.669 201.7 133.469 204.633 134.269C207.033 134.803 207.167 135.469 206.1 138.403C205.433 140.269 205.167 142.803 205.567 143.869C206.233 145.603 207.3 145.069 210.5 141.336C212.767 138.803 214.233 137.736 213.7 139.069C213.3 140.403 212.9 146.669 212.9 152.803V164.003H204.233H195.567V155.203C195.567 149.736 196.1 146.803 196.9 147.336C197.7 147.736 198.233 149.069 198.233 150.136C198.233 151.203 198.9 152.003 199.567 152.003C200.367 152.003 200.9 150.803 200.9 149.336C200.9 147.869 201.567 146.669 202.5 146.669C203.3 146.669 203.033 145.603 201.7 144.136C199.7 141.869 199.7 141.603 201.567 140.803C204.367 139.736 202.9 137.336 199.433 137.336C197.967 137.336 197.033 136.803 197.433 136.136C197.833 135.469 197.3 134.269 196.233 133.336C194.633 132.003 194.1 132.269 193.167 134.803C192.367 136.803 191.7 137.203 191.033 136.269C189.567 133.869 187.3 134.403 187.833 136.936C187.967 138.269 187.567 140.136 186.9 141.203C186.233 142.536 186.367 143.336 187.3 143.736C188.367 144.003 188.5 144.936 187.567 146.669C185.7 150.136 188.5 151.603 190.9 148.536C192.633 146.269 192.767 146.936 192.9 154.936V164.003H186.233H179.567V157.869C179.567 152.536 179.833 151.869 181.567 153.336C183.3 154.669 183.567 154.536 183.567 152.269C183.567 150.669 182.9 149.069 182.1 148.536C181.033 148.003 181.167 147.336 182.367 146.536C183.833 145.603 183.567 144.803 180.9 142.669C178.233 140.669 177.3 140.403 176.233 141.736C175.567 142.669 173.833 143.203 172.633 142.936C170.1 142.403 169.3 144.669 171.433 146.003C172.1 146.403 172.367 148.936 171.967 151.736L171.167 156.669L173.967 154.136L176.9 151.603V157.736C176.9 163.736 176.767 164.003 172.9 164.003C170.767 164.003 166.9 162.936 164.233 161.736L159.567 159.469V148.936V138.269L155.033 142.669L150.5 147.069L152.5 152.936C153.567 156.136 154.233 160.003 153.833 161.469C153.3 163.336 157.033 169.869 166.367 183.736C173.7 194.536 180.1 203.336 180.633 203.336C182.367 203.203 191.567 198.136 191.433 197.469C191.3 197.069 184.233 190.003 175.567 182.003C166.767 173.869 159.7 166.936 159.7 166.269C159.433 162.669 166.233 167.469 184.5 183.603C190.5 188.936 195.967 193.336 196.633 193.336C197.833 193.336 203.567 187.603 203.567 186.403C203.567 185.869 197.033 181.736 188.9 177.203C180.9 172.669 174.233 168.269 174.233 167.603C174.233 165.336 181.433 168.136 194.633 175.603L207.833 182.936L210.633 180.136C214.233 176.669 213.3 175.736 201.833 172.003C196.233 170.136 193.167 168.536 193.967 167.736C194.633 167.069 199.167 167.869 205.433 169.869L215.833 173.203L219.033 169.603C222.9 165.203 223.033 164.003 219.567 164.003C217.167 164.003 216.9 163.069 216.9 152.269C216.9 139.203 217.833 136.536 220.367 142.669C221.3 144.803 222.767 146.669 223.567 146.669C225.3 146.669 225.3 141.869 223.567 138.536C221.967 135.736 223.433 135.069 225.833 137.469C226.633 138.269 227.967 138.536 228.9 138.003C230.9 136.803 228.233 133.603 223.567 131.603L220.233 130.136L224.633 129.603C226.9 129.336 228.9 128.669 228.9 128.136C228.9 125.736 224.767 123.736 221.567 124.536C218.9 125.203 218.233 124.936 218.233 122.803C218.233 121.469 217.3 119.869 216.1 119.469C213.033 118.269 212.9 118.403 212.9 121.469ZM218.1 130.269C220.1 134.669 218.1 137.469 214.5 135.203C211.567 133.336 210.767 129.336 213.167 127.869C215.833 126.136 216.367 126.403 218.1 130.269Z" fill="#0A3A19"/>
<path d="M164.9 124.402C164.9 125.468 166.9 128.535 169.434 131.468C172.767 135.202 174.367 136.268 175.567 135.202C176.634 134.135 175.834 132.268 172.634 128.268C168.234 122.802 164.9 121.202 164.9 124.402Z" fill="#B26E0B"/>
<path d="M40.7659 131.469C26.8992 151.736 31.6992 175.603 54.7659 200.803C70.7659 218.536 94.4992 231.603 114.633 233.869C120.499 234.536 120.899 234.403 120.899 231.603C120.899 230.003 121.833 227.069 122.766 225.069C125.033 220.803 124.499 220.403 114.899 217.336C96.0992 211.469 74.4992 195.736 62.8992 179.336C51.8325 164.003 43.8325 141.469 45.2992 130.269C45.6992 127.603 45.6992 125.336 45.5659 125.336C45.2992 125.336 43.1659 128.136 40.7659 131.469ZM42.2325 148.269C44.3659 157.869 45.2992 181.469 43.4325 178.269C42.0992 176.003 40.3659 168.003 38.7659 156.403C37.9659 151.336 38.8992 141.336 40.2325 141.336C40.4992 141.336 41.4325 144.536 42.2325 148.269ZM59.1659 184.003C61.8325 187.336 67.4325 193.336 71.8325 197.469C78.8992 204.003 79.5659 205.069 77.1659 205.603C75.0325 206.269 73.4325 204.936 69.6992 199.203C66.7659 194.936 63.9659 192.003 62.4992 192.003C60.8992 192.003 58.8992 189.736 56.8992 185.203C55.0325 181.469 52.6325 177.736 51.4325 176.936C49.4325 175.469 48.4992 173.203 46.7659 166.003C46.3659 164.536 47.9659 166.669 50.3659 170.669C52.6325 174.669 56.6325 180.669 59.1659 184.003ZM53.2992 184.936C54.4992 189.203 55.8325 193.736 56.2325 194.936C57.8325 198.936 54.4992 197.603 52.2325 193.336C49.6992 188.403 47.9659 177.336 49.8325 177.336C50.4992 177.336 52.0992 180.803 53.2992 184.936ZM64.8992 197.469C65.8325 199.736 68.0992 203.603 69.6992 206.136C73.2992 211.336 71.9659 213.336 67.8325 208.936C65.0325 206.003 60.8992 197.469 60.8992 194.669C60.8992 191.869 63.2992 193.469 64.8992 197.469ZM80.8992 209.469C81.8325 210.936 84.6325 214.536 87.1659 217.469C91.9659 222.803 91.2992 224.269 85.5659 220.536C82.0992 218.269 76.8992 210.803 76.8992 208.136C76.8992 205.736 79.2992 206.536 80.8992 209.469ZM97.2992 215.203C103.299 218.536 110.899 221.869 114.099 222.669L119.966 224.269L117.166 226.936L114.366 229.736L110.633 225.869C107.033 222.003 99.6992 218.269 92.8992 216.803C90.0992 216.136 83.2992 209.336 85.5659 209.336C85.9659 209.336 91.1659 212.003 97.2992 215.203ZM103.299 223.869C110.499 228.536 111.433 230.269 105.699 228.803C101.966 227.869 94.2325 221.736 94.2325 219.736C94.2325 218.136 94.4992 218.269 103.299 223.869Z" fill="#0A3A19"/>
<path d="M236.1 136.266C235.567 169.599 206.234 204.266 168.234 216.799C162.367 218.799 157.434 220.533 157.167 220.666C157.034 220.799 157.834 223.066 158.9 225.733C159.967 228.399 160.5 231.466 160.1 232.666C159.3 234.666 159.967 234.799 165.7 233.999C197.567 229.733 227.7 208.799 242.5 180.933C248.1 170.133 248.234 169.866 248.234 156.666C248.234 144.666 247.834 142.799 244.634 137.333C242.767 133.999 239.967 129.866 238.634 128.266C236.234 125.199 236.234 125.333 236.1 136.266ZM244.1 152.266C244.634 155.466 244.234 159.999 242.767 164.933C240.234 173.733 229.7 196.666 227.7 197.999C225.7 199.066 225.834 197.199 228.1 191.866C230.767 185.066 231.834 179.999 230.367 179.999C229.7 179.999 228.1 182.666 226.767 185.999C225.034 190.799 223.834 191.999 221.434 191.999C217.834 191.999 217.167 193.999 220.234 195.199C222.1 195.866 222.1 196.533 220.234 200.933C218.1 206.133 213.3 211.999 211.3 211.999C210.767 211.999 211.967 208.799 214.234 204.933C220.634 193.599 219.167 190.399 212.234 200.666C209.567 204.666 207.434 206.533 205.967 206.133C204.5 205.866 203.967 206.266 204.5 207.466C205.567 210.266 198.9 219.599 194.234 221.999C189.967 224.266 188.767 222.799 192.5 219.866C196.1 216.933 202.234 207.733 201.434 206.533C201.167 205.866 203.434 203.599 206.5 201.333C214.1 195.866 225.3 182.666 230.9 172.666C235.167 164.799 236.634 161.066 239.567 149.333C241.3 142.933 242.634 143.733 244.1 152.266ZM194.767 211.866C192.634 213.866 188.767 215.999 186.234 216.533C181.967 217.199 182.367 216.933 189.567 212.799C193.967 210.266 197.834 208.133 198.1 208.133C198.367 207.999 196.767 209.733 194.767 211.866ZM178.234 219.733C176.5 220.933 173.034 223.733 170.634 225.866C167.034 228.933 165.834 229.333 164.234 227.999C161.034 225.333 161.834 224.399 169.3 221.999C173.034 220.799 177.167 219.199 178.234 218.533C181.7 216.533 181.7 217.333 178.234 219.733ZM187.567 219.866C187.567 223.066 174.234 231.066 172.234 229.066C171.567 228.533 184.767 219.066 186.634 218.799C187.167 218.799 187.567 219.199 187.567 219.866Z" fill="#0A3A19"/>
<path d="M0.1 132.27C0.5 134.003 2.1 141.603 3.56667 149.203C9.03333 175.47 18.6333 196.136 34.7667 215.87C58.2333 244.536 95.4333 259.203 117.967 248.67C124.9 245.47 125.7 244.536 123.833 241.87C122.233 239.336 109.3 238.27 105.967 240.536C104.233 241.47 98.3667 242.67 92.7667 243.07C84.6333 243.603 81.5667 243.336 76.9 241.203C73.7 239.736 71.4333 238.403 71.7 238.136C71.9667 237.87 75.0333 237.87 78.6333 238.27C82.6333 238.803 84.9 239.603 84.9 240.803C84.9 241.87 85.5667 242.67 86.2333 242.67C87.0333 242.67 87.5667 242.136 87.5667 241.47C87.5667 240.803 91.4333 239.736 96.2333 239.336C105.7 238.27 106.5 236.803 98.5 235.47C87.7 233.87 63.0333 218.27 51.9667 206.27C44.6333 198.403 36.1 185.47 31.1667 174.936C26.3667 164.67 22.3667 158.536 10.6333 142.936C5.96667 136.936 2.23333 131.336 2.23333 130.67C2.23333 129.87 1.56667 129.336 0.9 129.336C0.1 129.336 -0.166667 130.67 0.1 132.27ZM18.5 162.003C19.9667 164.936 23.0333 170.003 25.3 173.203C27.5667 176.536 29.4333 181.07 29.4333 183.336C29.5667 186.403 31.5667 189.87 37.0333 196.136C41.0333 200.803 45.4333 206.403 46.7667 208.403C49.0333 212.136 49.0333 212.27 46.6333 214.003C44.3667 215.736 44.3667 215.87 46.7667 218.936C48.1 220.536 46.2333 218.936 42.6333 215.07C38.9 211.336 33.9667 204.936 31.5667 201.07L27.3 194.003L34.2333 201.736C40.9 209.07 47.9667 214.67 45.4333 210.403C44.9 209.47 42.1 206.27 39.4333 203.336C33.3 196.67 28.5 190.803 26.3667 187.336C24.7667 184.803 24.7667 184.803 25.3 187.736C26.5 193.07 23.3 189.203 19.1667 180.136C15.5667 172.136 7.56667 149.87 7.56667 148.136C7.7 146.536 15.8333 156.936 18.5 162.003ZM57.9667 218.803C61.9667 220.403 64.5 222.27 63.8333 222.936C62.6333 224.136 52.3667 221.07 49.3 218.536C47.0333 216.67 47.0333 214.136 49.3 215.07C50.1 215.47 54.1 217.07 57.9667 218.803ZM70.9 230.136C74.6333 231.203 79.1667 232.003 81.3 232.003C83.3 232.003 84.9 232.67 84.9 233.47C84.9 236.003 68.2333 234.27 65.0333 231.336C63.4333 230.003 61.8333 229.336 61.4333 229.736C60.3667 230.803 53.9667 227.47 51.7 224.803C50.5 223.336 51.7 223.47 57.1667 225.603C61.0333 227.07 67.3 229.203 70.9 230.136ZM116.9 243.87C116.9 245.203 110.233 246.67 105.033 246.536C101.833 246.536 101.967 246.403 106.233 244.803C111.833 242.67 116.9 242.27 116.9 243.87Z" fill="#0A3A19"/>
<path d="M15.5664 165.601C15.5664 169.067 19.6997 177.067 21.9664 178.001C24.3664 178.934 26.0997 177.601 24.0997 176.267C23.2997 175.734 21.1664 172.667 19.1664 169.334C17.1664 166.001 15.5664 164.401 15.5664 165.601Z" fill="black"/>
<path d="M280.233 132.003C279.7 133.603 274.9 140.27 269.433 147.07C263.566 154.27 256.366 165.603 251.566 174.937C247.166 183.47 240.766 194.137 237.566 198.403C225.566 214.403 197.566 233.07 181.566 235.603C175.033 236.67 175.833 238.403 183.3 239.337C191.966 240.537 194.233 241.337 194.233 242.937C194.233 244.937 180.9 243.47 175.7 240.803C168.766 237.07 155.7 239.337 155.566 244.137C155.566 244.67 158.766 246.403 162.633 248.003C171.166 251.737 184.9 252.937 194.366 250.67C214.5 246.003 237.033 230.803 250.9 212.67C265.7 193.203 274.5 173.737 279.566 149.337C281.033 141.603 282.633 134.003 283.033 132.27C283.833 128.537 281.433 128.403 280.233 132.003ZM272.1 160.403C270.633 164.537 269.433 166.403 269.166 164.937C268.633 162.27 266.233 161.87 266.233 164.537C266.233 165.47 264.366 168.67 262.1 171.47C259.833 174.403 257.433 177.737 256.633 179.07C255.433 181.47 255.566 181.47 258.9 179.203C260.9 178.003 263.966 174.803 265.833 172.137C268.5 168.27 268.9 168.003 268.233 170.67C266.9 175.203 259.566 190.537 258.233 191.337C257.566 191.737 257.433 190.67 257.833 189.203C258.366 187.07 256.9 188.003 252.5 192.537C246.5 198.403 243.566 200.137 243.566 197.47C243.566 196.803 246.233 193.87 249.566 190.937C254.9 186.27 257.7 182.537 254.366 184.67C248.5 188.27 256.233 173.07 269.833 154.27C274.5 147.87 275.433 150.403 272.1 160.403ZM251.166 202.937C247.966 207.603 244.1 212.403 242.633 213.603C238.1 217.737 225.166 222.803 220.633 222.403C216.633 222.003 217.3 221.603 226.766 218.137C235.566 214.937 236.9 214.003 235.166 212.67C233.3 211.337 233.566 210.67 237.033 206.537C239.166 204.003 240.9 201.603 240.9 201.203C240.9 200.803 242.366 200.67 244.1 200.937C246.233 201.337 248.633 200.403 251.7 197.603C254.233 195.337 256.5 193.737 256.766 194.003C257.033 194.27 254.5 198.27 251.166 202.937ZM230.233 224.67C230.233 225.47 221.966 230.67 220.633 230.67C217.7 230.67 220.233 227.07 223.966 225.737C229.433 224.003 230.233 223.87 230.233 224.67ZM218.233 230.67C218.233 232.67 212.5 234.537 205.033 234.937C195.7 235.47 196.1 232.937 205.433 231.737C209.833 231.203 213.566 230.403 213.966 230.003C215.166 228.803 218.233 229.337 218.233 230.67ZM204.233 240.67C195.966 244.537 195.966 244.537 195.166 241.47C194.5 238.803 195.3 238.537 208.9 237.737C209.966 237.603 207.966 238.937 204.233 240.67ZM173.566 244.67C178.9 246.137 179.433 246.537 176.233 246.537C174.1 246.537 170.5 245.737 168.233 244.67C163.033 242.403 165.166 242.27 173.566 244.67Z" fill="#0A3A19"/>
<path d="M131.167 165.468C124.367 176.268 108.9 205.601 109.433 206.535C110.1 207.601 120.5 210.668 123.433 210.668C124.233 210.668 124.9 209.335 124.9 207.601C124.9 206.001 127.3 195.601 130.1 184.668C135.033 165.601 135.433 158.668 131.167 165.468Z" fill="#0A3A19"/>
<path d="M139.033 164.133C138.766 165.2 137.166 174.933 135.699 186C134.099 196.933 132.499 207.333 132.099 208.933C131.299 211.867 131.566 212 140.899 212C149.299 212 150.366 211.733 149.699 209.6C149.299 208.4 147.433 197.733 145.433 186C142.099 165.733 140.366 159.867 139.033 164.133ZM142.233 197.333C144.099 200.8 142.766 205.333 139.966 205.333C138.499 205.333 138.099 204.533 138.766 202.267C139.166 200.667 139.566 198.267 139.566 196.933C139.566 193.867 140.499 194 142.233 197.333Z" fill="#0A3A19"/>
<path d="M145.834 163.467C145.434 163.867 145.834 166.4 146.767 169.067C147.701 171.867 150.501 182.134 152.901 192C155.301 201.867 157.567 210.267 157.701 210.534C158.367 211.334 171.567 207.867 172.234 206.667C172.634 206 169.034 198.8 164.101 190.534C159.301 182.134 153.834 172.534 152.101 169.067C149.034 162.934 147.567 161.734 145.834 163.467Z" fill="#0A3A19"/>
<path d="M9.43306 203.2C8.49973 205.733 9.83306 208 12.3664 208C13.6997 208 14.2331 206.933 13.9664 205.067C13.4331 201.6 10.4997 200.267 9.43306 203.2Z" fill="#0A3A19"/>
<path d="M269.299 203.469C268.233 206.269 271.033 209.069 273.033 207.069C274.766 205.336 273.699 201.336 271.566 201.336C270.766 201.336 269.833 202.269 269.299 203.469Z" fill="#0A3A19"/>
<path d="M259.033 216.666C256.366 219.333 256.366 220.533 258.899 222.666C261.433 224.799 264.899 223.466 264.899 220.266C264.899 216.133 261.566 214.133 259.033 216.666Z" fill="#0A3A19"/>
<path d="M18.4998 219.603C18.7664 222.269 19.5664 223.336 21.5664 223.336C25.6998 223.336 25.2998 216.803 21.1664 216.269C18.4998 215.869 18.0998 216.269 18.4998 219.603Z" fill="#0A3A19"/>
<path d="M131.966 221.066C125.433 226.133 124.899 236.933 130.766 242.533C132.499 244.266 136.366 245.866 139.433 246.266C144.233 246.933 145.299 246.533 149.566 242.266C153.433 238.4 154.233 236.666 154.233 232C154.233 224.133 148.766 218.666 140.633 218.666C137.299 218.666 133.699 219.733 131.966 221.066ZM146.766 228.4C149.299 231.866 149.299 232.4 147.433 235.733C144.899 240.266 137.299 241.466 134.633 237.866C132.099 234.4 132.499 229.733 135.699 226.533C139.166 223.066 143.299 223.733 146.766 228.4Z" fill="#0A3A19"/>
<path d="M138.767 231.203C137.567 234.403 140.367 237.07 142.5 234.936C143.833 233.603 143.567 232.803 141.833 231.07C139.833 229.07 139.567 229.07 138.767 231.203Z" fill="#0A3A19"/>
<path d="M29.4327 232.536C27.9661 236.403 29.4327 239.336 32.8994 239.336C35.6994 239.336 36.2327 238.669 36.2327 235.336C36.2327 232.136 35.5661 231.203 33.1661 230.936C31.4327 230.669 29.9661 231.336 29.4327 232.536Z" fill="#0A3A19"/>
<path d="M246.767 234.133C245.833 238 247.567 240.4 250.9 239.733C254.633 239.066 256.367 235.333 254.367 232.8C251.567 229.466 247.7 230.133 246.767 234.133Z" fill="#0A3A19"/>
<path d="M43.5657 243.333C41.0324 246.4 42.4991 250 46.2324 250C48.3657 250 49.6991 249.2 49.9657 247.6C50.4991 245.2 48.0991 241.333 46.2324 241.333C45.6991 241.333 44.4991 242.267 43.5657 243.333Z" fill="#0A3A19"/>
<path d="M234.5 242.934C232.366 245.068 232.5 250.268 234.633 251.068C237.166 252.001 240.9 249.468 240.9 246.934C240.9 244.668 238.5 241.334 236.9 241.334C236.5 241.334 235.433 242.001 234.5 242.934Z" fill="#0A3A19"/>
<path d="M124.1 251.868C121.7 254.001 115.434 257.201 109.434 259.068C94.1004 264.134 89.7004 264.668 85.9671 262.134C81.1671 258.668 74.1004 259.468 67.1671 264.134C63.7004 266.401 60.9004 268.668 60.9004 269.201C60.9004 271.201 70.6337 274.668 76.3671 274.668C80.9004 274.668 83.0337 273.868 85.3004 271.601C87.3004 269.468 91.5671 267.868 98.9004 266.268C104.767 265.068 113.167 262.268 117.434 260.001C121.834 257.734 125.434 256.134 125.7 256.401C125.834 256.534 123.967 259.201 121.434 262.401C117.834 266.668 115.7 268.001 112.767 268.001C104.9 268.001 100.5 271.734 96.9004 281.868L95.5671 285.734L102.1 285.068C110.767 284.268 115.167 281.201 118.367 274.001C119.834 270.801 121.567 267.734 122.367 267.334C124.367 266.001 131.567 250.534 130.767 249.201C129.7 247.334 128.5 247.868 124.1 251.868ZM87.5671 266.668C87.5671 268.001 86.7671 268.134 76.6337 268.534C71.7004 268.668 69.9671 267.468 73.3004 266.268C76.3671 264.934 87.5671 265.334 87.5671 266.668ZM115.567 271.868C115.567 272.934 105.7 280.001 104.234 280.001C102.1 280.001 104.234 276.934 108.5 274.001C113.834 270.534 115.567 269.868 115.567 271.868Z" fill="#0A3A19"/>
<path d="M149.966 248.668C148.9 249.868 158.366 268.135 160.366 268.935C161.433 269.335 162.233 270.802 162.233 272.135C162.233 273.602 164.233 276.935 166.633 279.602C170.5 283.735 172.1 284.535 178.633 285.068L186.1 285.602L183.966 280.268C181.033 272.802 177.033 269.335 169.833 268.268C164.9 267.468 163.033 266.402 159.7 262.135C157.433 259.202 155.7 256.802 155.966 256.535C156.1 256.268 159.833 257.868 164.233 260.135C174.1 264.935 192.366 269.068 194.633 266.802C196.5 264.935 209.833 264.802 210.9 266.668C211.433 267.468 208.9 268.002 204.366 268.002C196.633 268.002 194.9 269.602 199.3 272.802C202.766 275.468 210.9 275.068 217.033 271.868L222.366 269.202L216.633 264.668C211.966 260.935 209.7 260.002 204.633 260.002C200.766 260.002 197.7 260.802 196.366 262.135C194.633 263.735 192.9 264.002 188.5 263.335C178.1 261.602 162.633 256.002 157.166 252.002C151.166 247.735 151.033 247.602 149.966 248.668ZM169.966 272.535C173.7 274.402 179.433 280.002 177.7 280.002C175.7 280.002 169.433 276.135 167.033 273.468C164.1 270.268 164.9 269.868 169.966 272.535Z" fill="#0A3A19"/>
<path d="M58.7671 251.336C57.5671 254.403 59.1671 257.336 62.2338 257.336C65.5671 257.336 67.1671 254.003 64.9005 251.336C62.7671 248.803 59.7005 248.803 58.7671 251.336Z" fill="#0A3A19"/>
<path d="M217.433 251.336C216.233 254.403 217.833 257.336 220.766 257.336C223.566 257.336 225.166 254.403 224.099 251.336C223.566 250.269 222.099 249.336 220.766 249.336C219.299 249.336 217.833 250.269 217.433 251.336Z" fill="#0A3A19"/>
<path d="M132.1 259.467C123.833 274.267 124.633 281.867 136.1 297.601L140.633 303.867L146.9 294.534C152.233 286.934 153.433 284.001 153.966 278.001C154.5 271.734 153.966 269.334 149.833 260.667C147.166 255.201 144.366 250.667 143.566 250.667C142.766 250.667 142.233 253.734 142.233 258.134C142.233 263.734 143.033 266.934 145.7 271.467C147.7 274.801 148.766 277.867 148.233 278.401C147.7 278.934 146.9 278.667 146.633 277.867C146.366 277.067 145.3 275.201 144.366 273.867C142.633 271.601 142.5 272.401 141.966 280.401C141.7 287.734 141.966 289.201 143.433 288.667C144.766 288.134 144.5 288.934 142.9 290.667L140.233 293.601L137.966 290.667C135.033 287.067 134.766 284.401 137.566 286.667C139.3 288.134 139.566 287.201 139.566 279.867L139.433 271.334L136.233 275.334C132.1 280.267 131.833 277.334 135.833 270.934C138.766 266.134 140.5 252.667 138.233 251.334C137.566 250.934 134.9 254.534 132.1 259.467Z" fill="#0A3A19"/>
<path d="M83.8328 280.268C81.9661 282.135 84.0995 286.668 86.7661 286.668C89.4328 286.668 91.6995 283.335 90.7661 280.801C89.8328 278.268 86.0995 278.001 83.8328 280.268Z" fill="#0A3A19"/>
<path d="M191.033 280.801C189.833 283.734 193.3 287.334 196.233 286.134C197.566 285.734 198.233 284.134 197.966 282.401C197.433 278.534 192.366 277.467 191.033 280.801Z" fill="#0A3A19"/>
<path d="M115.566 298.533C115.566 299.333 116.5 299.999 117.566 299.999C119.3 299.999 119.566 302.666 119.566 315.999C119.566 329.333 119.3 331.999 117.566 331.999C116.5 331.999 115.566 332.533 115.566 333.066C115.566 334.266 127.3 333.999 128.5 332.799C129.033 332.399 128.366 331.999 127.033 331.999C125.033 331.999 124.766 330.799 125.166 323.199C125.566 313.866 127.566 310.666 132.1 312.399C135.3 313.599 135.3 331.999 131.966 331.999C130.766 331.999 130.233 332.399 130.633 332.799C131.833 333.999 143.566 334.133 143.566 332.933C143.566 332.399 142.633 331.999 141.566 331.999C139.966 331.999 139.566 329.999 139.566 322.266C139.566 316.533 138.9 311.866 137.966 310.933C135.833 308.799 128.633 308.799 126.5 310.933C125.3 312.133 124.9 310.933 124.9 305.599C124.9 299.599 124.5 298.666 122.366 298.666C120.9 298.666 118.9 298.266 117.7 297.866C116.5 297.466 115.566 297.733 115.566 298.533Z" fill="#0A3A19"/>
<path d="M149.834 299.468C149.3 300.001 148.9 301.601 148.9 302.935C148.9 304.801 149.7 305.468 151.967 305.068C153.834 304.801 154.9 303.735 154.9 302.001C154.9 299.335 151.567 297.735 149.834 299.468Z" fill="#0A3A19"/>
<path d="M33.5666 301.469C30.6333 301.869 29.2999 302.402 30.6333 302.536C32.6333 302.669 31.9666 304.002 27.2999 310.002C21.2999 317.736 18.7666 319.336 20.0999 314.269C20.4999 312.669 20.8999 309.469 20.8999 307.069C20.8999 304.136 21.6999 302.669 23.2999 302.269C24.4999 301.869 21.9666 301.602 17.5666 301.602C13.1666 301.602 10.6333 301.869 11.9666 302.269C13.9666 302.802 14.2333 304.669 14.2333 317.469C14.2333 330.136 13.9666 332.002 11.9666 332.002C10.7666 332.002 10.2333 332.402 10.6333 332.802C11.6999 334.002 23.4333 334.002 24.4999 332.802C24.8999 332.402 24.3666 332.002 23.1666 332.002C21.2999 332.002 20.8999 330.669 20.8999 325.469C20.8999 316.002 23.1666 315.869 27.1666 325.069C30.2333 332.402 31.0333 333.069 35.1666 333.602C37.6999 333.869 39.9666 333.602 40.3666 333.069C40.7666 332.536 40.0999 332.002 39.0333 332.002C37.8333 332.002 34.8999 328.136 32.0999 322.402L27.2999 312.802L33.4333 306.936C36.8999 303.736 39.5666 300.936 39.2999 300.802C39.0333 300.669 36.4999 300.936 33.5666 301.469Z" fill="#0A3A19"/>
<path d="M162.634 302.267C164.634 302.8 164.9 304.667 164.9 317.467C164.9 329.467 164.5 332 162.9 332C161.834 332 160.9 332.4 160.9 332.933C160.9 333.6 164.234 334 168.234 334C172.234 334 175.567 333.6 175.567 332.933C175.567 332.4 174.367 332 172.9 332C170.634 332 170.234 331.067 170.234 325.333C170.234 318.8 170.367 318.667 174.234 318.667C177.3 318.667 178.234 319.2 178.234 321.333C178.234 322.8 178.9 324 179.567 324C180.367 324 180.9 320.933 180.9 317.2C180.9 313.067 180.367 310.8 179.567 311.333C178.9 311.733 178.234 313.067 178.234 314.133C178.234 315.2 177.434 316 176.367 316C175.3 316 173.434 316.4 172.234 316.8C170.367 317.6 170.1 316.667 170.5 310.533C170.9 303.467 171.034 303.333 175.167 302.933C178.767 302.533 179.834 303.067 181.167 305.867C182.767 309.6 185.7 310.8 184.367 307.2C183.967 306 183.567 304.267 183.567 303.2C183.567 301.733 181.167 301.333 171.967 301.467C165.434 301.6 161.3 301.867 162.634 302.267Z" fill="#0A3A19"/>
<path d="M42.634 311.2C44.3674 312.533 44.9007 314.933 44.9007 322.533C44.9007 328 44.3674 332 43.5674 332C42.9007 332 42.234 332.4 42.234 332.933C42.234 333.6 45.3007 334 48.9007 334C52.634 334 55.5674 333.6 55.5674 333.067C55.5674 332.4 54.3674 332 52.7674 332C50.234 332 50.1007 331.333 50.234 323.067C50.5007 308.533 50.7674 309.333 45.3007 309.333C40.7674 309.467 40.5007 309.6 42.634 311.2Z" fill="#0A3A19"/>
<path d="M53.2997 310.27C52.3664 310.67 51.5664 311.47 51.5664 312.27C51.5664 313.07 52.3664 313.336 53.4331 312.936C54.4997 312.536 56.0997 312.936 56.8997 314.003C58.7664 316.27 62.2331 315.203 62.2331 312.403C62.2331 311.336 63.0331 310.67 63.9664 310.936C64.8997 311.336 65.8331 315.203 66.2331 320.803C66.6331 325.87 67.4331 330.67 67.9664 331.603C69.6997 334.27 75.6997 334.936 79.0331 332.67C80.7664 331.603 82.2331 331.203 82.2331 331.87C82.2331 333.336 90.0997 334.536 91.0331 333.07C91.4331 332.536 90.7664 332.003 89.6997 332.003C87.9664 332.003 87.5664 330.003 87.5664 320.67V309.336H82.0997C78.8997 309.336 77.0331 309.87 77.5664 310.67C77.9664 311.336 79.2997 312.003 80.3664 312.003C83.5664 312.003 82.8997 326.936 79.5664 330.003C74.6331 334.403 72.8997 331.87 72.8997 320.136V309.47L63.9664 309.603C58.8997 309.603 54.0997 310.003 53.2997 310.27Z" fill="#0A3A19"/>
<path d="M96.6332 310.801C93.5665 312.535 93.5665 319.068 96.4999 321.468C97.6999 322.535 100.5 323.868 102.767 324.668C105.567 325.601 106.9 326.801 106.9 328.668C106.9 332.535 100.5 333.068 97.9665 329.468C96.7665 327.868 95.4332 327.201 94.3665 327.868C92.2332 329.201 98.6332 334.668 102.367 334.668C107.167 334.668 111.567 332.001 112.367 328.668C113.433 324.268 111.167 321.735 104.9 320.001C99.1665 318.535 97.1665 315.201 100.1 312.268C102.633 309.735 106.233 311.201 106.233 314.668C106.233 316.401 107.167 317.335 108.9 317.335C111.967 317.335 112.5 313.468 109.967 310.935C107.967 308.935 99.8332 308.935 96.6332 310.801Z" fill="#0A3A19"/>
<path d="M146.633 311.2C149.966 313.733 149.966 332 146.633 332C145.433 332 144.899 332.4 145.299 332.8C146.499 334 158.233 334.133 158.233 332.933C158.233 332.4 157.299 332 156.233 332C154.633 332 154.233 329.867 154.233 320.667V309.333H149.299C144.766 309.467 144.499 309.6 146.633 311.2Z" fill="#0A3A19"/>
<path d="M189.7 311.469C187.833 313.336 186.767 317.336 188.1 317.336C188.367 317.336 189.567 317.736 190.767 318.136C192.367 318.802 192.9 318.136 192.9 315.469C192.9 310.936 196.633 309.336 199.033 312.669C200.1 314.002 200.9 316.536 200.9 318.269C200.9 320.802 200.233 321.336 196.5 321.336C187.433 321.336 183.033 328.536 189.567 332.802C192.367 334.669 193.567 334.669 196.767 333.336C199.7 332.136 201.3 332.136 203.433 333.336C205.433 334.269 207.033 334.402 208.633 333.469C210.767 332.136 210.767 332.136 208.633 332.002C206.633 332.002 206.233 330.669 206.233 323.602C206.233 312.802 203.967 309.336 196.9 309.336C193.967 309.336 190.9 310.269 189.7 311.469ZM200.9 326.669C200.9 329.069 197.3 332.002 194.367 332.002C193.567 332.002 192.9 330.269 192.9 328.136C192.9 325.069 193.567 324.136 195.967 323.736C199.833 323.069 200.9 323.602 200.9 326.669Z" fill="#0A3A19"/>
<path d="M211.566 310.667C211.566 311.333 212.5 312 213.566 312C215.166 312 215.566 314 215.566 322C215.566 330 215.166 332 213.566 332C212.5 332 211.566 332.4 211.566 332.933C211.566 333.6 214.633 334 218.233 334C221.966 334 224.9 333.6 224.9 333.067C224.9 332.4 223.966 332 222.9 332C219.966 332 220.1 315.733 223.033 313.2C224.9 311.733 225.433 311.867 227.033 313.867C228.5 316 229.166 316.133 230.9 314.667C232.5 313.333 232.633 312.533 231.433 311.2C229.566 308.933 224.633 308.8 222.5 310.933C221.3 312.133 220.9 312.133 220.9 310.933C220.9 310 219.033 309.333 216.233 309.333C213.7 309.333 211.566 309.867 211.566 310.667Z" fill="#0A3A19"/>
<path d="M234.634 310.801C237.968 312.801 238.101 332.001 234.634 332.001C229.568 332.001 234.634 333.734 240.234 333.868C246.234 334.001 247.968 332.934 244.101 331.468C242.501 330.801 242.101 328.934 242.234 322.268C242.768 308.934 242.901 309.334 237.301 309.334C233.168 309.468 232.634 309.734 234.634 310.801Z" fill="#0A3A19"/>
<path d="M244.9 311.333C243.434 313.067 243.834 313.2 247.434 312.533C250.9 311.867 251.567 312.133 251.567 314.133C251.7 315.6 251.834 319.867 252.1 323.733C252.367 328.933 251.967 331.067 250.767 331.6C247.167 332.933 249.034 334 254.9 334C258.234 334 260.9 333.6 260.9 332.933C260.9 332.4 260.367 332 259.567 332C257.7 332 257.834 315.6 259.834 313.6C262.1 311.333 265.834 311.6 266.767 314.133C267.167 315.333 267.567 319.733 267.567 324.133C267.567 330.267 267.167 332 265.567 332C264.5 332 263.567 332.4 263.567 332.933C263.567 333.6 266.634 334 270.234 334C273.967 334 276.9 333.6 276.9 333.067C276.9 332.4 275.967 332 274.9 332C273.3 332 272.9 330.133 272.9 322.933C272.9 315.733 272.367 313.333 270.5 311.6C267.434 308.8 262.5 308.667 259.567 311.333C257.567 313.2 257.167 313.2 255.567 311.333C253.434 308.8 247.034 308.8 244.9 311.333Z" fill="#0A3A19"/>
</svg>
